<?xml version="1.0" encoding="UTF-8"?> <!-- Generator: Adobe Illustrator 23.1.1, SVG Export Plug-In . SVG Version: 6.00 Build 0) --> <svg xmlns="http://www.w3.org/2000/svg" xmlns:xlink="http://www.w3.org/1999/xlink" id="Layer_1" x="0px" y="0px" viewBox="0 0 1133.9 1133.9" xml:space="preserve"> <circle fill="#FFFFFF" cx="566.9" cy="566.9" r="556.5"></circle> <g> <path fill-rule="evenodd" clip-rule="evenodd" fill="#FCDA47" d="M434.6,436.9c13.3,2.9,33,11.7,41.1,12.1c0,8.8-33.4,21-45.1,21 c-11.7,0-21.9-3.1-21-16.8C410.6,439.4,421.3,434,434.6,436.9"></path> <path fill-rule="evenodd" clip-rule="evenodd" fill="#28282A" d="M380.4,429c1.1-0.4,2.4-0.3,3.3,0.5c1.1,0.9,1.7,2.4,1.9,3.8 c0.4,2.5-0.2,5.1-1.5,7.3c-0.9,1.4-2.1,2.7-3.7,3.1c-1.4,0.4-2.9-0.3-3.7-1.4c-1.3-1.9-1.4-4.4-1-6.6 C376.3,433,377.7,430.1,380.4,429 M387.1,410.5c9.2,2.5,13.7,15.9,10.1,30.1c-3.6,14.2-14,23.7-23.1,21.2 c-9.2-2.5-13.7-15.9-10.1-30.1C367.6,417.6,378,408.1,387.1,410.5z"></path> <path fill="#28282A" d="M787.6,491.4c5.5-1.8,12,0.7,15,5.7c2.9,4.6,2.4,10.8-0.7,15.1c-2.7,3.9-4.5,8.6-8,11.8 c-5.2,4.6-14.1,3.9-18.5-1.5c-4.1-4.5-4.1-11.7-0.6-16.5C778.4,500.7,780.7,493.2,787.6,491.4"></path> <path fill="#E94645" d="M309.1,250.3c13.1-1.7,27-0.5,39.1,5.3c7.3,3.6,13.7,8.8,19.3,14.7c2.1,2.1,4.1,4.3,6.9,5.4 c2.8,1.1,6.9,0.5,8.1-2.6c1.2-2.6-0.4-5.4-2.2-7.2c-3.4-3.3-7.6-5.7-11.7-8c-1.4-0.8-3.3-1.7-3.5-3.6c0.3-2,2.4-2.7,4.1-2.9 c7.4-1,15-0.2,21.9,2.8c9,3.8,16.6,10.5,22.8,17.9c4.2,5,8.2,10.3,11.3,16.1c5.7,10.8,8,23.1,7.6,35.3c-0.4,4-0.6,8.7-4,11.4 c-2.8,2-6.3,0.3-8.6-1.7c-20.8-16.3-47.1-25.6-73.6-25.6c-22.6-0.3-44.8,5.9-65.2,15.2c-8.7,4-17.1,9.1-26.6,10.8 c-6.6,1.1-14.3-0.3-18.7-5.7c-4.4-5.2-4.4-13-1.8-19c3-7,9.2-12,15.5-15.8c17.8-10.7,39.6-14.5,60-10.6c2.8,0.5,7,0.8,8.3-2.5 c0.8-3.5-1.6-6.9-4.7-8.5c-5.7-2.9-12.1-3.9-17.9-6.7c-1.9-0.9-3.6-2.5-3.6-4.7c0-2.4,1.9-4.3,3.8-5.5 C299.6,252,304.4,250.9,309.1,250.3"></path> <path fill="#28282A" d="M268.2,341.8c26.2-14.8,56.6-22.7,86.7-20c14.3,1.4,28.8,4.4,41.7,11c18.8,9.5,33.6,26.2,41.7,45.6 c6.8,14.4,9.2,33.5,7.7,49.8c-0.5,5.6-2.8,5.6-7.6,3.9c-1.1-0.4-6.1-1.5-8.4-1.6c-11.4-0.7-14.7,4.5-13.7-8.4 c0.9-9.1-0.6-18.3-4.4-27c-4.4-13.2-13.2-25.1-25.1-32.5c-10.3-6.6-22.5-9.1-34.5-10.3c-25.3-2.5-50.8,5.2-72.4,18.2 c-29.7,17.7-53.5,43.9-71.9,72.9c-17.2,27.6-30.2,58.3-35.1,90.7c-5.2,36.5-0.2,74.7,15.8,108c11.5,23.9,29.9,45.1,53.8,57.1 c20.6,10.6,44.3,13.5,67.1,12.1c26-1.7,51.3-11.3,72.4-26.5c6.4-5.2,16.8-3.9,21.6,2.7c5.1,6.4,3.9,16.8-2.9,21.6 c-27,19.8-59.7,31.7-93.2,33c-21.7,0.9-43.8-1.5-64.3-9.1c-18.6-6.8-35.6-17.7-49.7-31.6c-18.7-18.3-32.2-41.4-40.8-66 c-12.4-35.2-15.6-73.5-9.5-110.3c5.9-34.7,19.8-67.8,38.4-97.6C203.5,393,232.4,362,268.2,341.8"></path> <path fill="#28282A" d="M904.9,463.2c5.3-3.8,12.8-4.3,18.5-1.1c6.4,3.4,10.2,10.6,9.8,17.8c0.1,7.2-3.8,13.5-7.5,19.4 c-4.9,7.5-10.6,14.5-17.4,20.5c-5,4.7-13.7,4.4-18.3-0.7c-4.9-4.8-4.9-13.7,0.2-18.3c4.5-4.3,8.8-8.9,12.3-14.1 c-1.8-2-3.6-4.1-4.2-6.8C896.7,473.6,899.7,466.7,904.9,463.2"></path> <path fill="#28282A" d="M815,591.3c2.8,0.7,30.6,0.3,34.8-18.3c0.4-7.9-11.2-7.1-16.6-4C827.4,571.6,820.7,581,815,591.3 M441.9,487c2.4-4.4,7.4-7.2,12.5-6.7c6.5,0.2,12.1,6,12.1,12.4c0.5,4.7-2.5,8.5-4.5,12.5c-8,15.2-15.4,30.6-22.8,46.1 c7.7-3.6,16.3-6.4,25-4.8c8.8,1.5,16.9,7,21.1,14.9c3.1,6,3.1,13.1,1.3,19.5c-2.6,9.4-8.3,17.4-12.8,25.9 c-4.1,7.7-8.6,15.3-11.9,23.4c-0.8,2.3-2,5-0.6,7.3c3.3,1.8,6.9-0.6,9.7-2.2c8.3-5.6,13.7-14.4,18.9-22.7 c5.7-10.1,12-19.8,17.2-30.2c5.3-10.3,10.5-20.7,16.6-30.6c3.5-5.9,12-7.8,17.8-4.2c5.7,3.1,8,10.8,5.3,16.7 c-9.6,17.2-18.8,34.7-27.2,52.5c-1.9,4.9-4.1,9.9-4.3,15.2c-0.1,2.5,1.4,5.7,4.3,5.5c6.3-0.2,11.8-4.4,14.9-9.7 c10.7-15.6,16.3-34.1,26.6-49.9c6.5-10.2,14.1-20.2,24.6-26.6c7.7-4.6,17.4-6,25.9-2.9c6.1,2.2,11.3,6.8,13.9,12.7 c3.3,7.5,2.9,16.4-0.6,23.7c-2.6,5.1-8.8,7.9-14.3,6.6c-4.4-0.9-8.7-4.1-9.6-8.7c-0.9-3.6,0.8-7.1,0.9-10.8 c-5.5,2.4-8.9,7.7-12.8,12c-8.7,11.3-15.9,24.1-19.7,37.9c-0.9,4.1-2.5,8.7-0.5,12.8c1.7,3.4,6,3.6,9.3,3.3 c12.9-1,24.3-8.5,33.4-17.2c8.3-8.2,15.5-17.5,22-27.3c9.5-17,18.7-34.2,26.6-52c8.2-18.6,17.2-36.8,26.8-54.6 c3.6-6.5,12.9-8.4,18.9-4.1c5.3,3.5,7.1,11.2,4.2,16.8c-7.9,15-15.7,30.1-22.6,45.6c-4.3,9.5-8.6,19-13.2,28.4 c14.9-8.1,29.8-16.3,44.7-24.5c5.6-3.2,13.6-1.8,17.3,3.7c4.4,5.9,2.6,15.4-4,19c-18.4,10.2-36.9,20.2-55.3,30.3 c4.5,9.7,9.4,19.3,14.1,28.9c1.4,2.6,2.8,5.8,5.8,6.8c3.1,0.1,5.7-1.2,8.1-3c1.3-1.1,2.6-2.4,3.9-3.8c0.8-1,1.6-1.9,2.3-2.8 c4.4-5.6,8.5-12.7,12.1-18.4c5.7-10.1,12-19.8,17.2-30.2c5.3-10.3,10.5-20.7,16.6-30.6c3.5-5.9,12-7.8,17.8-4.2 c5.7,3.1,8,10.8,5.3,16.7c-9.6,17.2-18.8,34.7-27.2,52.5c-1.9,4.9-4.1,9.9-4.3,15.2c-0.1,2.5,1.4,5.7,4.3,5.5 c6.3-0.2,11.8-4.4,14.9-9.7c10.7-15.6,16.3-34.1,26.6-49.9c6.5-10.2,14.1-20.2,24.6-26.6c9.1-5.3,25.3-7,34-3.6 c13.5,5.3,20.7,16.8,20.3,28.8c-0.8,26.1-42.3,40.7-67.8,37.2c-1.3,3.2-2.3,6.1-2.8,8.2c-0.9,4.1-2.5,8.7-0.5,12.8 c1.7,3.4,9.2,4.5,12.5,4.2c6.9,0.4,11.2-3.7,18.4-6.2c23.1-8,24,34.5-26.1,31.6c-9.9-0.4-19.6-5-25.5-13.1 c-10.5,9.8-25.4,15.2-39.8,13.4c-7.2-0.8-13.7-5.2-17.2-11.6c-8.9,7.1-19.3,14.7-30.7,13.9l0,0c-6-0.2-12-2.3-16.4-6.4 c-5.9-5.3-9.1-12.7-12.5-19.7c-4.2-8.5-8.5-17.1-12.4-25.8c-10,14.1-21.1,27.8-35.3,38c-12.6,9.1-28.1,14.6-43.7,14.1 c-9.9-0.4-19.6-5-25.5-13.1c-10.5,9.8-25.4,15.2-39.8,13.4c-7.2-0.8-13.7-5.2-17.2-11.6c-8.5,7.4-19.8,12-31.2,11.3 c-7.3-0.3-14.9-3-19.8-8.7c-5.6-6.3-7.2-15.5-5.8-23.6c1.8-11.7,7.5-22.2,13.2-32.4c2.8-5.1,6.7-9.8,7.5-15.8 c0.6-4.2-2.4-8.8-6.7-9.3c-3.5,0.2-6.6,2.3-9.3,4.3c-8,6.3-13.9,14.9-19.1,23.5c-10.6,17.8-20.1,36.2-29.7,54.5 c-2,4-6.2,6.8-10.6,7c-4.9,0.5-10-2.1-12.4-6.4c-2.3-3.8-2.3-8.8-0.3-12.8c19.2-42.4,38.5-84.7,58.9-126.6 C431.1,507.8,436.2,497.2,441.9,487z"></path> <path fill="#28282A" d="M555.2,495.3c5.5-1.8,12,0.7,15,5.7c2.9,4.6,2.4,10.8-0.7,15.1c-2.7,3.9-4.5,8.6-8,11.8 c-5.2,4.6-14.1,3.9-18.5-1.5c-4.1-4.5-4.1-11.7-0.6-16.5C546,504.6,548.2,497.2,555.2,495.3"></path> <path fill="#28282A" d="M938.3,546c12-4.1,26-3.3,37,3.2c6.8,4,12.1,10.7,13.6,18.5c2.6,12.6-4.4,26.5-16.2,31.6 c-5.4,2.2-12.1,0.1-15.4-4.6c-3.7-5.2-3.1-13.2,1.9-17.3c1.6-1.3,3.1-2.7,4.4-4.3c-4.4-3.3-10.4-4.2-15.7-2.4 c-7.8,2.5-16.2,6.2-20.6,13.4c-3.2,4.9-1.1,12.4,4.6,14.3c7.4,2.9,15.3,6.2,20.1,13c10.3,13.7,6.7,35.4-7.5,45 c-13.3,9.1-30.3,8.9-45.7,7.6c-4.4-0.1-8.9-2.2-11.2-6c-4.1-6.1-2-15.4,4.7-18.8c4.9-2.8,10.7-1,16-0.9c6.9,0.2,14.4,0.3,20.6-3.2 c3.2-1.8,4.1-7.7,0.2-9.2c-5.3-2.6-11.1-4.2-15.8-7.9c-13.3-10-17.5-29.8-10.1-44.5C910,559.4,924,550.6,938.3,546"></path> <path fill="#E94645" d="M776.9,708.2L776.9,708.2c-0.2,10.5,0,21-0.1,31.5c-0.2,2.3,0.6,5.4,3.3,5.8c6.3,0.8,12.8,0.5,19.2,0.3 c3.9,0.1,5.3-5.8,1.1-7.1c-5.1,0-10.1,0-15.2,0c0-3.5,0-7,0-10.5c4.3,0,8.6,0.2,12.8-0.2c3.6-0.4,4.3-5.9,0.8-7 c-4.5-0.7-9.1-0.2-13.6-0.3c0-3.4,0-6.8,0-10.2c4.9-0.1,9.9,0.4,14.8-0.3c3.6-0.9,2.8-6.4-0.7-6.7c-6-0.5-12.1-0.3-18.1-0.1 C778.7,703.3,776.8,705.7,776.9,708.2 M567.7,707.2L567.7,707.2c-0.2,12,0.1,24-0.1,36c1,1.8,3.5,2.8,5.8,2.6 c7.2,0.2,15.8,0.2,21-5.6c4.9-5.5,3.4-13.2,3.6-19.9c0.2-4.7-1-9.7-4.7-12.8c-5.5-4.7-13.2-4.4-19.9-4.3 C571,703,567.6,704.3,567.7,707.2z M535.8,705.7L535.8,705.7c0.1,12.1-0.1,24.2,0.1,36.3c-0.2,2.1,1.9,3.4,3.7,3.6 c5.2,0.6,10.4,0.2,15.7,0.3c2.1-0.1,4.7,0.2,6-1.9c2-1.8,0-5.1-2.4-5.2c-4.9-0.3-9.8,0-14.7-0.1c0-3.5,0-7,0-10.5 c4.4-0.1,8.9,0.3,13.3-0.3c3-0.9,3.6-5.5,0.5-6.8c-4.5-1.1-9.2-0.3-13.8-0.5c0-3.4,0-6.8,0-10.2c5-0.2,10.2,0.6,15.1-0.4 c3.6-1.4,1.8-6.6-1.6-6.6c-5.6-0.3-11.2-0.2-16.8-0.1C537.6,703.1,535.8,704.2,535.8,705.7z M482.1,707L482.1,707 c-0.2,10.9,0,21.7-0.1,32.6c0.2,1.9-0.5,4.5,1.5,5.8c2.5,2.4,7.1,0.1,6.9-3.2c0.2-4.5,0-9.1,0-13.6c1,0,3.1-0.1,4.1-0.2 c3.9,5.4,7.1,11.3,11.1,16.6c2.4,2.9,7.1,0.7,7.4-2.8c-2.5-5.1-6.3-9.5-9.3-14.3c2.5-1.5,5.3-2.8,6.8-5.4 c3.4-5.5,1.8-13.9-4.1-17.1c-5.7-3.1-12.4-2-18.6-2.2C485.5,703,482.1,704,482.1,707z M450.2,707.1L450.2,707.1 c-0.2,10.8,0,21.6-0.1,32.5c0.2,2.1-0.6,5,1.8,6c2.2,1.7,6,0.5,6.4-2.4c0.4-5,0.1-10.1,0.2-15.1c4.5-0.2,9.3,0.6,13.7-0.6 c3-1.2,2.6-5.7-0.4-6.6c-4.4-0.7-8.9-0.2-13.3-0.3c0-3.4,0-6.8,0-10.2c4.9-0.1,9.8,0.3,14.6-0.2c3.8-1.1,2.7-6.6-1-6.8 c-5.5-0.4-11.1-0.2-16.7-0.1C453.2,703.1,450.1,704.3,450.2,707.1z M808.8,707L808.8,707c-0.3,10.9,0,21.7-0.1,32.6 c0,2.3-0.2,5.8,2.8,6.4c2.7,1.3,5.8-1.3,5.6-4.1c0.3-7.5-0.1-14.9,0.1-22.4c5.1,8.2,9.6,16.8,14.8,24.9c2,3.5,8.7,2.1,8.2-2.3 c0.1-12,0.2-24.1,0-36.1c-0.6-3.9-6.4-4.4-8.1-0.9c-0.6,8.3,0,16.7-0.2,25.1c-5-8.3-9.6-16.9-14.7-25.1 C815.2,701,808.4,702.3,808.8,707z M744,703.4L744,703.4c-2.3,1.7-1.6,4.8-1.7,7.3c0.2,10.8-0.2,21.6,0.2,32.3c0.4,4.3,7.5,4.3,8,0 c0.7-4.9-0.3-10,0.9-14.9c4.7,5.2,8.5,11.2,13,16.5c1.4,2.2,5.1,2.1,6.4-0.2c1.7-1.7,0.1-3.9-0.9-5.4c-4.1-5.5-8.4-10.9-12.6-16.4 c3.7-4.4,7.7-8.4,11.4-12.8c1-1.4,2.4-3,1.8-4.9c-1.3-1.9-4-3.5-6-1.7c-5,4.5-9,10-13.7,14.8c-0.1-4.1,0.3-8.2-0.2-12.3 C750.2,702.9,746.2,701.6,744,703.4z M714.5,705L714.5,705c-5.5,3.5-6.4,10.6-6.2,16.6c0.2,7-1.2,15.2,4.2,20.8 c6.1,5.4,16.4,5.2,22.7,0.3c2.1-1.8,1.4-4.6-0.8-5.9c-3.9-0.8-6.9,3-10.8,2.6c-3,0-6.1-1.8-6.7-4.9c-1-5.9-0.6-11.9-0.3-17.8 c0-3.2,2.4-6.5,5.7-6.7c3.5-0.8,6.6,1.4,9.8,2.5c2.6,0.8,3.9-2.1,5-3.9C731.9,701.8,721.5,700.9,714.5,705z M696.5,702.8 L696.5,702.8c-1.9,0.5-3.1,2.3-2.8,4.2c-0.1,10.8,0,21.7-0.1,32.5c0.2,2-0.6,4.7,1.6,6c2.5,2.3,6.9-0.1,6.5-3.4 c0.1-11.7,0-23.4,0-35C702.1,704.3,699,701.9,696.5,702.8z M655.3,705.9L655.3,705.9c-0.3,12-0.1,24-0.1,36.1 c-0.5,4.5,6.1,5.8,8.1,2.1c0.5-5.3,0.1-10.6,0.2-15.9c4.5,0,9,0,13.6,0c0.1,4.9-0.3,9.8,0.1,14.7c0.3,3.4,5.1,4.7,7.2,2.1 c1.5-2.3,0.9-5.2,1.1-7.7c-0.2-10.4,0.2-20.8-0.2-31.2c-0.4-4.1-6.5-4.6-7.9-0.9c-0.9,5.1-0.2,10.3-0.4,15.5c-4.5,0-9,0-13.5,0 c-0.1-5.2,0.3-10.4-0.2-15.6C661.6,701.5,655.8,702,655.3,705.9z M632.8,702.9L632.8,702.9c-5.8,0.8-10.6,5.6-11.3,11.4 c-0.6,6-0.3,12.1-0.3,18.1c0.1,5.5,3.5,11.1,8.9,12.8c5.7,1.7,12.6,1.5,17.5-2.3c2.1-1.3,2.6-4.8,0.1-5.9c-2.4-1.5-4.7,0.7-6.9,1.4 c-3.5,1.6-8.7,1-10.4-2.8c-1.3-4.1-0.7-8.6-0.9-12.9c0.1-3.8-0.6-8.2,2.2-11.3c2.8-2.2,6.9-2.1,10-0.5c1.9,0.7,4,2.4,6,1 c2.4-1.1,2.1-4.5,0.1-5.9C643.6,702.8,637.9,702,632.8,702.9z M522.2,702.8L522.2,702.8c-3.4,1-3,5.1-3,7.9 c0.2,10.8-0.3,21.6,0.2,32.4c0.5,4.3,7.5,4.3,8,0c0.5-12,0.2-24,0.2-36C527.9,704.3,524.9,701.8,522.2,702.8z M445.2,683.7 c130.1-0.2,260.3,0,390.5-0.1c9.8-0.6,19.4,7.5,19.3,17.5c0,15.2,0,30.5,0,45.7c0.1,9.1-8,17.3-17.1,17.4c-130.7,0-261.4,0-392.1,0 c-6.6,0.2-13-4-15.9-9.9c-2.6-4.9-2-10.6-2.1-16c0.1-12.5-0.2-25,0.2-37.4C428.3,691.9,436.2,684.1,445.2,683.7z"></path> <path fill="#E94645" d="M490.4,710.4c3.5,0.1,7.1-0.3,10.5,0.7c4,1.2,4.2,7.9,0.2,9.3c-3.5,1-7.2,0.6-10.8,0.6 C490.4,717.4,490.4,713.9,490.4,710.4"></path> <path fill="#E94645" d="M576.1,738.8c0-9.5-0.1-19,0.1-28.5c3.9,0.3,8.7-0.4,11.6,2.9c2.5,3,1.7,7.2,1.9,10.8 c-0.2,4,0.7,8.6-2,11.9C584.7,739.1,580,738.4,576.1,738.8"></path> <path fill="#28282A" d="M264.5,610.5c9.9-0.8,19.9-3.8,27.9-9.9c4.8-3.8,8.7-8.6,11.9-13.7c1.2-1.8,2.4-3.8,4.2-5.1 c1.9-1.3,5-1.4,6.4,0.7c1.3,1.7,0.6,4-0.5,5.6c-2,3-4.7,5.4-7.4,7.7c-0.9,0.8-2.2,1.7-2,3.2c0.5,1.4,2.2,1.6,3.5,1.5 c5.6-0.4,11.1-2.2,15.7-5.4c6.1-4.2,10.6-10.2,14-16.7c2.3-4.3,4.5-8.8,5.8-13.6c17.5-63.7-45.7,11.4-111.1-3.4 c-7-1.6-14-4.1-21.2-3.8c-5,0.2-10.4,2.4-12.9,7.1c-2.4,4.5-1.3,10.2,1.6,14.3c3.3,4.7,8.6,7.4,13.9,9.2 c14.7,5.1,31.3,4.6,45.7-1.4c2-0.8,5-1.6,6.5,0.5c1.1,2.5-0.1,5.4-2.1,7c-3.7,3-8.3,4.8-12.1,7.7c-1.2,0.9-2.3,2.4-2,4 c0.4,1.7,2,2.9,3.6,3.5C257.2,610.7,260.9,610.7,264.5,610.5"></path> </g> </svg> 