<?xml version="1.0" encoding="UTF-8" ?>
<!DOCTYPE svg PUBLIC "-//W3C//DTD SVG 1.1//EN" "http://www.w3.org/Graphics/SVG/1.1/DTD/svg11.dtd">
<svg viewBox="0 0 40 40" xmlns="http://www.w3.org/2000/svg" version="1.1">
	<path fill="#ffd800" d="M25.716,0.8288c-1.811-0.54-3.73-0.8288-5.717-0.8288-11.046,0-19.999,8.9536-19.999,19.999,0,4.5064,1.4912,8.664,4.0056,12.009,0.0184,0.016,0.0376,0.0304,0.0568,0.048l5.9264,4.9408,26.121-28.778c0.0712,0.0688,0.1272,0.1392,0.1848,0.2096-2.5536-3.592-6.2536-6.312-10.578-7.6z" />
	<path fill="#006850" d="M9.5104,23.003h0.7928c1.8896,0,2.588-0.4856,2.984-2.3824l0.773-3.609h-1.7648l-0.9552,4.483h-2.2192l0.9552-4.483h-1.764l-0.772,3.609c-0.404,1.896,0.08,2.3824,1.9704,2.3824zm-2.5656-1.9c0.264-1.264-0.2208-1.823-1.6472-1.823h-1.632l0.1696-0.7792h3.2856l0.316-1.4704h-2.9992c-1.4328,0-2.1528,0.5952-2.4176,1.852-0.272,1.25,0.1984,1.837,1.632,1.837h1.6464l-0.1688,0.794h-3.4776l-0.316,1.47h3.176c1.4176,0,2.168-0.6248,2.4328-1.8808zm32.393-6.217c-0.532-2.018-1.372-3.911-2.465-5.6252-0.086-0.128-0.159-0.2424-0.227-0.348-0.089-0.1336-0.181-0.2664-0.273-0.3976-0.079-0.1024-0.162-0.1992-0.263-0.2968-1.777-1.5552-4.438-2.024-7.092-1.2568-1.8032,0.5504-3.6112,1.6536-5.14,3.3504-1.4536,1.6528-2.6448,3.8776-3.3184,6.7184h-1.4704l-0.896,4.2048-0.7-4.205h-2.69l-1.2712,5.9536h1.6608l0.8968-4.1824,0.6984,4.1824h2.7864c-0.6904,2.8192-1.9168,5.0424-3.4136,6.7016-1.5336,1.7432-3.36,2.8488-5.192,3.368-2.605,0.784-5.193,0.418-6.9066-0.999-0.02-0.0176-0.04-0.0336-0.0592-0.0504,3.648,4.854,9.4548,7.995,15.996,7.995,4.0664,0,7.8504-1.2144,11.007-3.2992,2.3312-1.54,4.3208-3.5544,5.832-5.9064,2-3.1144,3.16-6.8184,3.16-10.795,0-1.7672-0.2296-3.4816-0.66-5.1136z" />
	<path fill="#ffffff" d="M23.75,17.025c-1.4336,0-2.1608,0.5936-2.4256,1.8504-0.272,1.2496,0.2168,1.8496,1.6504,1.8496h1.6248l-0.1504,0.8h-3.4744l-0.3256,1.4504h3.1752c1.4184,0,2.1608-0.6192,2.4248-1.8752,0.2656-1.2648-0.2232-1.8248-1.6496-1.8248h-1.6246l0.1756-0.775h3.2744l0.3256-1.4752h-3zm3.9744,0l-1.2752,5.9504h4.7504l0.3248-1.4504h-3l0.1752-0.8h2.8752l0.3-1.4496h-2.8748l0.1748-0.775h2.9752l0.3248-1.4752h-4.75zm5.2504,0l-0.3,1.4752h1.8496l-0.9496,4.4752h1.7752l0.95-4.475h1.8504l0.3248-1.4752h-5.5zm3.8744,5c-0.256,0-0.4744,0.1824-0.4744,0.4752s0.2184,0.4752,0.4744,0.4752c0.2592,0,0.5008-0.1824,0.5008-0.4752,0-0.2936-0.2416-0.4752-0.5008-0.4752zm0,0.1c0.2112,0,0.3752,0.1624,0.3752,0.3752s-0.164,0.4-0.3752,0.4c-0.208,0-0.3744-0.1872-0.3744-0.4s0.1664-0.3752,0.3744-0.3752zm-0.1744,0.1v0.5504h0.1v-0.2248h0.0496l0.1504,0.2248h0.1l-0.15-0.225c0.0808-0.008,0.1504-0.0536,0.1504-0.1504,0-0.1176-0.068-0.1752-0.2-0.1752h-0.2zm0.1,0.1h0.0744c0.0496,0,0.1256-0.0128,0.1256,0.0504,0,0.0704-0.0424,0.1-0.1,0.1h-0.1v-0.1502zm-16.325,1.675l-0.4744,2.2248h1.3752c0.488,0,0.7536-0.2136,0.8496-0.6744,0.0528-0.2336,0.0176-0.4056-0.1504-0.5256,0.2176-0.132,0.3088-0.268,0.3504-0.4744,0.076-0.372-0.083-0.551-0.526-0.551h-1.4256zm6.3504,0l-0.4752,2.2248h0.6l0.475-2.225h-0.6zm9.6,0l-0.1,0.5248h-0.4c-0.5552,0-0.7848,0.1528-0.9,0.7l-0.075,0.275c-0.1176,0.5464,0.0704,0.7248,0.6256,0.7248h1l0.474-2.225h-0.6248zm-13,0.5c-0.556,0-0.7848,0.1776-0.9,0.7248l-0.0752,0.3c-0.1184,0.5464,0.0696,0.7,0.6248,0.7h0.2504c0.5552,0,0.8088-0.1536,0.9248-0.7l0.0504-0.3c0.118-0.547-0.041-0.725-0.6-0.725h-0.2752zm4.9,0c-0.556,0-0.7824,0.1536-0.9,0.7l-0.0752,0.3c-0.1176,0.5464,0.0448,0.7248,0.6,0.7248h0.9248l0.1008-0.4744h-1.1008l0.0256-0.1752h1.1248l0.1-0.3504c0.114-0.548-0.071-0.726-0.626-0.726h-0.1752zm-3.6248,0.0248l-0.225,0.975c-0.1168,0.5464,0.0712,0.7248,0.6256,0.7248h0.9744l0.3752-1.7h-0.6l-0.2744,1.2256h-0.526l0.2504-1.2256h-0.6zm4.6,0l0.2248,1.7h0.8248l0.9752-1.7h-0.6l-0.6752,1.2256-0.1-1.2256h-0.6496zm2.1744,0l-0.0992,0.4504h0.9744l-0.0496,0.1752h-0.5752c-0.3376,0-0.5784,0.1504-0.6504,0.4992v0.051c-0.0736,0.3464,0.0736,0.5248,0.4,0.5248h1.2l0.251-1.125c0.0904-0.4128-0.0624-0.5752-0.4752-0.5752h-0.9752zm1.8504,0l-0.3752,1.7h0.6l0.2752-1.2496h0.4496l-0.1248,0.5496h0.6256l0.075-0.425c0.0904-0.4128-0.0648-0.5752-0.4744-0.5752h-1.0504zm-12.3,0.0256h0.7504l-0.0752,0.3248h-0.749l0.0752-0.3248zm7.0248,0.4h0.5504l-0.0504,0.2248h-0.5496l0.0496-0.2248zm-4.8744,0.0248h0.5744l-0.1744,0.7752h-0.5752l0.1752-0.7752zm12.499,0h0.5504l-0.1752,0.7752h-0.5496l0.1744-0.7752zm-14.824,0.374h0.7752l-0.0752,0.3248h-0.7744l0.0744-0.3248zm10.825,0.2248h0.5504l-0.049,0.225h-0.526l0.0248-0.2248z" />
</svg>
